HIERARCHY
ROOT Hips
{
	OFFSET 0.000000 83.214638 0.000000
	CHANNELS 6 Xposition Yposition Zposition Xrotation Yrotation Zrotation
	JOINT Pelvis
	{
		OFFSET 0.000000 0.000000 0.000000
		CHANNELS 3 Xrotation Yrotation Zrotation
		JOINT LeftUpLeg
		{
			OFFSET 8.479700 -4.795502 -0.379100
			CHANNELS 3 Xrotation Yrotation Zrotation
			JOINT LeftLeg
			{
				OFFSET 0.024144 -32.555107 0.112900
				CHANNELS 3 Xrotation Yrotation Zrotation
				JOINT LeftFoot
				{
					OFFSET -0.024144 -32.638630 -3.012600
					CHANNELS 3 Xrotation Yrotation Zrotation
					JOINT LeftToeBase
					{
						OFFSET 0.970200 -13.225400 11.864200
						CHANNELS 3 Xrotation Yrotation Zrotation
						End Site
						{
							OFFSET 0.000000 12.319262 0.000000
						}
					}
					JOINT LFootTongue
					{
						OFFSET 1.142400 -1.059800 6.665200
						CHANNELS 3 Xrotation Yrotation Zrotation
						End Site
						{
							OFFSET 0.000000 12.319262 0.000000
						}
					}
				}
				JOINT LeftPantLeg
				{
					OFFSET 0.918482 -16.533964 -2.284700
					CHANNELS 3 Xrotation Yrotation Zrotation
					End Site
					{
						OFFSET 0.350399 24.744368 0.000000
					}
				}
			}
		}
		JOINT RightUpLeg
		{
			OFFSET -8.479700 -4.795502 -0.379100
			CHANNELS 3 Xrotation Yrotation Zrotation
			JOINT RightLeg
			{
				OFFSET -0.023144 -32.555092 0.112900
				CHANNELS 3 Xrotation Yrotation Zrotation
				JOINT RightFoot
				{
					OFFSET 0.023144 -32.638641 -3.012700
					CHANNELS 3 Xrotation Yrotation Zrotation
					JOINT RightToeBase
					{
						OFFSET -0.970200 -13.225400 11.864200
						CHANNELS 3 Xrotation Yrotation Zrotation
						End Site
						{
							OFFSET 0.000000 12.319244 0.000000
						}
					}
					JOINT RFootTongue
					{
						OFFSET -1.142200 -1.059800 6.665200
						CHANNELS 3 Xrotation Yrotation Zrotation
						End Site
						{
							OFFSET 0.000000 12.319243 0.000000
						}
					}
				}
				JOINT RightPantLeg
				{
					OFFSET -0.919482 -16.533978 -2.284800
					CHANNELS 3 Xrotation Yrotation Zrotation
					End Site
					{
						OFFSET -0.350400 24.744419 0.000000
					}
				}
			}
		}
	}
	JOINT Spine
	{
		OFFSET 0.000000 7.722000 1.166200
		CHANNELS 3 Xrotation Yrotation Zrotation
		JOINT Spine1
		{
			OFFSET 0.000000 12.024101 0.248800
			CHANNELS 3 Xrotation Yrotation Zrotation
			JOINT Spine2
			{
				OFFSET 0.000000 11.502998 -0.491200
				CHANNELS 3 Xrotation Yrotation Zrotation
				JOINT Neck
				{
					OFFSET 0.000000 18.430702 -3.123100
					CHANNELS 3 Xrotation Yrotation Zrotation
					JOINT Head
					{
						OFFSET 0.000000 9.051102 1.034000
						CHANNELS 3 Xrotation Yrotation Zrotation
						JOINT HairB
						{
							OFFSET 0.208400 24.786102 24.822300
							CHANNELS 3 Xrotation Yrotation Zrotation
							End Site
							{
								OFFSET 0.000000 32.263779 0.000000
							}
						}
						JOINT HairA
						{
							OFFSET -7.081100 24.428299 23.196600
							CHANNELS 3 Xrotation Yrotation Zrotation
							End Site
							{
								OFFSET 0.000000 32.263779 0.000000
							}
						}
						JOINT Hat
						{
							OFFSET 16.728800 15.048294 -15.439601
							CHANNELS 3 Xrotation Yrotation Zrotation
							End Site
							{
								OFFSET 0.000000 32.263779 0.000000
							}
						}
					}
				}
				JOINT LeftShoulder
				{
					OFFSET 6.197800 13.665199 -4.064700
					CHANNELS 3 Xrotation Yrotation Zrotation
					JOINT LeftArm
					{
						OFFSET 7.778100 -0.187103 -1.709300
						CHANNELS 3 Xrotation Yrotation Zrotation
						JOINT LeftForeArm
						{
							OFFSET 22.049376 0.000000 0.000000
							CHANNELS 3 Xrotation Yrotation Zrotation
							JOINT LeftHand
							{
								OFFSET 23.009392 0.000000 0.000000
								CHANNELS 3 Xrotation Yrotation Zrotation
								JOINT LeftHandThumb1
								{
									OFFSET 3.507191 -2.063065 3.133727
									CHANNELS 3 Xrotation Yrotation Zrotation
									JOINT LeftHandThumb2
									{
										OFFSET 3.101337 -1.790558 1.790558
										CHANNELS 3 Xrotation Yrotation Zrotation
										JOINT LeftHandThumb3
										{
											OFFSET 3.058640 -1.765907 1.765906
											CHANNELS 3 Xrotation Yrotation Zrotation
											End Site
											{
												OFFSET -0.415260 3.926476 -0.049563
											}
										}
									}
								}
								JOINT LeftHandIndex1
								{
									OFFSET 11.334419 -0.901459 3.706815
									CHANNELS 3 Xrotation Yrotation Zrotation
									JOINT LeftHandIndex2
									{
										OFFSET 3.283112 0.000000 0.000000
										CHANNELS 3 Xrotation Yrotation Zrotation
										JOINT LeftHandIndex3
										{
											OFFSET 3.323853 0.000000 0.000000
											CHANNELS 3 Xrotation Yrotation Zrotation
											End Site
											{
												OFFSET -1.135597 3.097809 0.402452
											}
										}
									}
								}
								JOINT LeftHandMiddle1
								{
									OFFSET 11.335861 0.000000 0.000000
									CHANNELS 3 Xrotation Yrotation Zrotation
									JOINT LeftHandMiddle2
									{
										OFFSET 3.410492 0.000000 0.000000
										CHANNELS 3 Xrotation Yrotation Zrotation
										JOINT LeftHandMiddle3
										{
											OFFSET 3.312172 0.000000 0.000000
											CHANNELS 3 Xrotation Yrotation Zrotation
											End Site
											{
												OFFSET -1.150200 3.080154 0.400270
											}
										}
									}
								}
								JOINT LeftHandRing1
								{
									OFFSET 11.514786 -0.013176 -3.003090
									CHANNELS 3 Xrotation Yrotation Zrotation
									JOINT LeftHandRing2
									{
										OFFSET 3.053307 0.000000 0.000000
										CHANNELS 3 Xrotation Yrotation Zrotation
										JOINT LeftHandRing3
										{
											OFFSET 3.295807 0.000000 0.000000
											CHANNELS 3 Xrotation Yrotation Zrotation
											End Site
											{
												OFFSET -1.281006 3.013344 0.375733
											}
										}
									}
								}
								JOINT LeftHandPinky1
								{
									OFFSET 10.518692 -0.960396 -5.730441
									CHANNELS 3 Xrotation Yrotation Zrotation
									JOINT LeftHandPinky2
									{
										OFFSET 2.861649 0.000000 0.000000
										CHANNELS 3 Xrotation Yrotation Zrotation
										JOINT LeftHandPinky3
										{
											OFFSET 2.863380 0.000000 0.000000
											CHANNELS 3 Xrotation Yrotation Zrotation
											End Site
											{
												OFFSET -0.843597 2.711159 0.369971
											}
										}
									}
								}
							}
							JOINT LSleeve
							{
								OFFSET 6.676277 -0.344902 -1.011730
								CHANNELS 3 Xrotation Yrotation Zrotation
								End Site
								{
									OFFSET 0.000000 14.885353 0.000000
								}
							}
						}
					}
				}
				JOINT RightShoulder
				{
					OFFSET -6.197800 13.665199 -4.064700
					CHANNELS 3 Xrotation Yrotation Zrotation
					JOINT RightArm
					{
						OFFSET -7.778100 -0.187103 -1.709300
						CHANNELS 3 Xrotation Yrotation Zrotation
						JOINT RightForeArm
						{
							OFFSET -22.049376 0.000000 0.000000
							CHANNELS 3 Xrotation Yrotation Zrotation
							JOINT RightHand
							{
								OFFSET -23.009392 0.000000 0.000000
								CHANNELS 3 Xrotation Yrotation Zrotation
								JOINT RightHandThumb1
								{
									OFFSET -3.507191 -2.063065 3.133727
									CHANNELS 3 Xrotation Yrotation Zrotation
									JOINT RightHandThumb2
									{
										OFFSET -3.101337 -1.790558 1.790558
										CHANNELS 3 Xrotation Yrotation Zrotation
										JOINT RightHandThumb3
										{
											OFFSET -3.058640 -1.765907 1.765906
											CHANNELS 3 Xrotation Yrotation Zrotation
											End Site
											{
												OFFSET 0.415260 3.926476 -0.049563
											}
										}
									}
								}
								JOINT RightHandIndex1
								{
									OFFSET -11.334419 -0.901459 3.706815
									CHANNELS 3 Xrotation Yrotation Zrotation
									JOINT RightHandIndex2
									{
										OFFSET -3.283112 0.000000 0.000000
										CHANNELS 3 Xrotation Yrotation Zrotation
										JOINT RightHandIndex3
										{
											OFFSET -3.323853 0.000000 0.000000
											CHANNELS 3 Xrotation Yrotation Zrotation
											End Site
											{
												OFFSET 1.135597 3.097809 0.402452
											}
										}
									}
								}
								JOINT RightHandMiddle1
								{
									OFFSET -11.335861 0.000000 0.000000
									CHANNELS 3 Xrotation Yrotation Zrotation
									JOINT RightHandMiddle2
									{
										OFFSET -3.410492 0.000000 0.000000
										CHANNELS 3 Xrotation Yrotation Zrotation
										JOINT RightHandMiddle3
										{
											OFFSET -3.312172 0.000000 0.000000
											CHANNELS 3 Xrotation Yrotation Zrotation
											End Site
											{
												OFFSET 1.150200 3.080154 0.400270
											}
										}
									}
								}
								JOINT RightHandRing1
								{
									OFFSET -11.514786 -0.013176 -3.003090
									CHANNELS 3 Xrotation Yrotation Zrotation
									JOINT RightHandRing2
									{
										OFFSET -3.053307 0.000000 0.000000
										CHANNELS 3 Xrotation Yrotation Zrotation
										JOINT RightHandRing3
										{
											OFFSET -3.295807 0.000000 0.000000
											CHANNELS 3 Xrotation Yrotation Zrotation
											End Site
											{
												OFFSET 1.281006 3.013344 0.375733
											}
										}
									}
								}
								JOINT RightHandPinky1
								{
									OFFSET -10.518692 -0.960396 -5.730441
									CHANNELS 3 Xrotation Yrotation Zrotation
									JOINT RightHandPinky2
									{
										OFFSET -2.861649 0.000000 0.000000
										CHANNELS 3 Xrotation Yrotation Zrotation
										JOINT RightHandPinky3
										{
											OFFSET -2.863380 0.000000 0.000000
											CHANNELS 3 Xrotation Yrotation Zrotation
											End Site
											{
												OFFSET 0.843597 2.711159 0.369971
											}
										}
									}
								}
							}
							JOINT RSleeve
							{
								OFFSET -6.676277 -0.344902 -1.011730
								CHANNELS 3 Xrotation Yrotation Zrotation
								End Site
								{
									OFFSET 0.000000 14.885353 0.000000
								}
							}
						}
					}
				}
				JOINT Backpack
				{
					OFFSET 0.000000 -2.471497 36.677502
					CHANNELS 3 Xrotation Yrotation Zrotation
					End Site
					{
						OFFSET 0.000000 20.427315 0.000000
					}
				}
				JOINT Hood
				{
					OFFSET 0.000000 18.754097 -10.431000
					CHANNELS 3 Xrotation Yrotation Zrotation
					JOINT Hood1
					{
						OFFSET 0.000000 -5.011002 -7.685901
						CHANNELS 3 Xrotation Yrotation Zrotation
						End Site
						{
							OFFSET 0.000000 9.175140 0.000000
						}
					}
				}
				JOINT LHoodieString
				{
					OFFSET 5.250500 16.397697 3.089900
					CHANNELS 3 Xrotation Yrotation Zrotation
					JOINT LHoodieString1
					{
						OFFSET 0.257700 -6.364304 3.694600
						CHANNELS 3 Xrotation Yrotation Zrotation
						JOINT LHoodieString2
						{
							OFFSET 0.000000 -9.643799 2.679100
							CHANNELS 3 Xrotation Yrotation Zrotation
							End Site
							{
								OFFSET 0.000000 10.009018 0.000000
							}
						}
					}
				}
				JOINT RHoodieString
				{
					OFFSET -5.250500 16.397697 3.089900
					CHANNELS 3 Xrotation Yrotation Zrotation
					JOINT RHoodieString1
					{
						OFFSET -0.257700 -6.364304 3.694600
						CHANNELS 3 Xrotation Yrotation Zrotation
						JOINT RHoodieString2
						{
							OFFSET 0.000000 -9.643799 2.679100
							CHANNELS 3 Xrotation Yrotation Zrotation
							End Site
							{
								OFFSET 0.000000 10.009018 0.000000
							}
						}
					}
				}
			}
			JOINT LBackpack_Strap
			{
				OFFSET 15.223200 -7.719803 -6.610900
				CHANNELS 3 Xrotation Yrotation Zrotation
				End Site
				{
					OFFSET 0.000000 16.040596 0.000000
				}
			}
			JOINT RBackpack_Strap
			{
				OFFSET -15.223000 -7.719803 -6.610900
				CHANNELS 3 Xrotation Yrotation Zrotation
				End Site
				{
					OFFSET 0.000000 16.040596 0.000000
				}
			}
		}
	}
	JOINT BoyFacialAnim_Joint
	{
		OFFSET 1.000000 -82.208099 -1.550900
		CHANNELS 3 Xrotation Yrotation Zrotation
		End Site
		{
			OFFSET 0.000000 30.012791 0.000000
		}
	}
}
MOTION
Frames: 4
Frame Time: 0.016667
0.422243 76.320869 -0.515678 33.950521 -23.398492 7.262214 -0.000002 -0.000000 -0.000000 -77.972640 6.499530 21.230648 94.516322 5.517557 -4.905778 9.099468 -5.055303 2.073099 -0.000002 0.000000 -0.000000 -0.000002 0.000000 -0.000000 -0.000002 -0.000000 -0.000000 -47.765039 4.691030 6.131185 45.650532 4.361678 0.469512 -18.280190 -1.914999 -0.140871 -0.000001 0.000000 -0.000000 -0.000001 0.000000 -0.000000 -0.000001 0.000001 -0.000000 11.641774 3.975864 -2.241956 5.818540 0.259721 -2.809625 -10.931776 0.793505 3.196301 0.763620 9.298929 -8.496117 -32.953139 4.763627 2.047905 -0.000000 0.000000 0.000000 -0.000000 0.000000 0.000000 -0.000000 0.000000 0.000000 1.952249 -2.052954 14.106886 -76.027341 17.447740 -39.907631 -79.531133 -83.559640 -82.552494 -40.469752 -0.152858 8.942056 17.551578 -5.699192 -12.932267 10.850573 26.127716 8.644759 -0.000000 0.000002 -0.000001 13.980896 1.201581 -55.004371 0.370823 1.161716 -65.441893 -0.000001 0.000000 -0.000002 7.504747 1.174532 -63.778517 1.807876 1.475662 -64.568012 -0.000003 0.000001 -0.000003 8.574300 2.179142 -75.148986 -0.207621 1.009282 -57.855063 -0.000001 0.000000 0.000001 10.030085 13.637092 -84.750230 0.877140 0.062356 -64.595476 0.000000 -0.000001 0.000001 0.000001 0.000003 0.000001 4.985259 19.106682 8.633890 -22.095478 5.720157 42.521322 29.456659 69.546864 -32.206190 0.332161 10.304459 -5.342092 18.329291 0.310706 -9.071070 -2.198331 -31.113533 7.361215 0.000003 0.000003 0.000004 2.375169 -3.668634 30.846992 -2.142103 -2.481830 41.032908 0.000001 -0.000003 0.000001 -1.972140 -5.717188 36.022008 0.289278 -5.113428 49.347932 -0.000000 0.000001 0.000003 -3.257763 -8.572676 37.723333 4.044278 -4.071801 59.216914 -0.000003 -0.000001 -0.000002 -6.464750 -11.358786 54.840897 10.730567 -2.567758 66.401815 0.000001 -0.000000 0.000002 0.000000 -0.000001 -0.000000 0.000000 0.000003 -0.000001 0.000000 0.000003 -0.000001 0.000000 0.000003 -0.000001 0.000000 0.000003 -0.000001 0.000000 0.000003 -0.000001 -0.000001 0.000001 0.000000 0.000000 0.000003 -0.000001 0.000000 0.000003 -0.000001 -0.000001 0.000001 0.000000 0.000000 -0.000003 0.000001 0.000000 -0.000003 0.000001 -0.000002 -0.000000 -0.000000 
0.085341 76.843269 4.837410 32.035319 -22.077388 6.893702 -0.000000 -0.000001 0.000001 -80.704060 5.773215 20.466211 91.301557 5.777886 -4.362590 8.106887 -5.031566 0.630373 -0.000000 -0.000000 0.000000 -0.000000 -0.000000 0.000000 -0.000002 -0.000001 -0.000000 -41.948372 4.408246 3.545003 44.727828 3.199661 0.168945 -15.446797 -4.783103 2.659716 0.000002 0.000001 -0.000000 0.000002 0.000001 -0.000000 0.000000 0.000001 -0.000001 13.531511 4.447849 -4.276758 4.946193 0.681146 -1.790054 -10.657565 0.747527 3.502206 -0.964062 8.765078 -7.245215 -30.630028 4.634936 1.209476 0.000000 0.000000 0.000000 0.000000 0.000000 0.000000 0.000000 0.000000 0.000000 1.850591 -1.530463 12.872930 -74.590215 15.606154 -37.843360 -144.942174 -87.295637 -147.418541 -48.350851 2.730418 12.545425 17.551576 -5.699193 -12.932265 10.850572 26.127716 8.644760 -0.000003 0.000000 0.000000 13.980897 1.201577 -55.004374 0.370820 1.161717 -65.441887 -0.000004 -0.000001 -0.000000 7.504748 1.174526 -63.778517 1.807874 1.475663 -64.568012 -0.000000 0.000001 -0.000003 8.574300 2.179141 -75.148992 -0.207615 1.009281 -57.855063 0.000002 0.000000 -0.000000 10.030086 13.637083 -84.750237 0.877141 0.062356 -64.595476 -0.000001 -0.000001 -0.000000 0.000002 0.000001 0.000000 4.599374 20.091987 7.394487 -22.228627 2.483222 40.725898 73.013903 78.448718 -77.195754 3.828283 11.723705 0.088485 16.754302 0.369565 -8.461182 -1.642425 -29.135784 6.903594 0.000000 0.000001 -0.000002 2.171760 -3.424946 28.919434 -2.060042 -2.222332 38.754254 -0.000001 0.000002 0.000000 -1.682263 -5.183783 33.477366 0.193941 -4.713292 48.099637 -0.000001 -0.000000 -0.000000 -2.821107 -8.304384 35.271158 3.590729 -3.876616 56.964932 -0.000001 0.000000 0.000002 -6.055256 -10.420617 51.003980 9.770772 -2.646450 64.230382 -0.000001 -0.000003 -0.000000 -0.000003 -0.000000 0.000000 -0.000000 0.000000 -0.000000 -0.000000 0.000000 -0.000000 -0.000000 0.000000 -0.000000 -0.000000 0.000000 -0.000000 -0.000000 0.000000 -0.000000 -0.000002 0.000000 -0.000000 -0.000000 0.000000 -0.000000 -0.000000 0.000000 -0.000000 -0.000002 0.000000 -0.000000 -0.000001 -0.000001 -0.000000 -0.000001 -0.000001 -0.000000 -0.000000 -0.000001 0.000001 
-0.281512 77.470383 10.248089 30.084231 -20.720984 6.639698 0.000001 -0.000001 -0.000000 -82.549776 5.484634 19.464221 86.313394 6.336184 -3.871055 7.235258 -4.938420 -0.939472 -0.000001 0.000000 0.000000 -0.000001 0.000000 0.000000 0.000002 0.000001 -0.000000 -34.907820 4.084942 0.988502 41.503265 2.299884 -0.134472 -11.157531 -7.942186 6.028496 0.000000 -0.000000 0.000000 0.000000 -0.000000 0.000000 -0.000002 -0.000002 0.000001 15.513069 5.011852 -6.605651 4.029745 1.227234 -0.599440 -10.285321 0.762049 3.923220 -2.852081 7.836787 -6.163744 -28.170347 4.307469 0.283355 0.000001 -0.000000 -0.000000 0.000001 -0.000000 -0.000000 0.000001 -0.000000 -0.000000 1.718140 -1.109382 11.529360 -73.265472 13.679097 -35.280543 -210.645329 -84.574544 -212.479453 -56.352988 4.804338 15.957412 17.551578 -5.699196 -12.932263 10.850569 26.127712 8.644761 -0.000002 0.000002 0.000000 13.980897 1.201573 -55.004371 0.370820 1.161719 -65.441887 0.000003 0.000000 -0.000002 7.504748 1.174526 -63.778517 1.807873 1.475660 -64.568012 -0.000001 -0.000000 -0.000003 8.574303 2.179136 -75.148979 -0.207614 1.009279 -57.855063 -0.000002 0.000000 -0.000000 10.030087 13.637086 -84.750230 0.877137 0.062357 -64.595476 0.000000 0.000003 -0.000001 -0.000004 0.000002 -0.000001 4.280033 20.150723 5.717931 -22.945329 2.376926 38.931477 122.509825 76.439796 -127.618287 5.357765 7.052876 3.426949 15.011009 0.421160 -7.763759 -1.045690 -26.961185 6.336296 0.000001 0.000001 -0.000001 1.966066 -3.143437 26.765510 -1.949413 -1.946058 36.208810 -0.000001 0.000001 0.000004 -1.319219 -4.630108 30.634662 0.107750 -4.267007 46.698721 0.000001 -0.000005 -0.000001 -2.322577 -8.050481 32.533048 3.109217 -3.624319 54.449971 -0.000001 -0.000004 0.000003 -5.502873 -9.469274 46.733206 8.715344 -2.657357 61.799299 0.000001 0.000001 0.000004 -0.000000 -0.000000 0.000001 0.000000 0.000000 0.000000 0.000000 0.000000 0.000000 0.000000 0.000000 0.000000 0.000000 0.000000 0.000000 0.000000 0.000000 0.000001 -0.000001 -0.000000 0.000000 0.000000 0.000000 0.000000 0.000000 0.000000 0.000001 -0.000001 -0.000000 0.000000 0.000001 0.000001 -0.000000 0.000001 0.000001 -0.000000 0.000001 -0.000001 -0.000000 
-0.660580 78.116394 15.636871 28.118615 -19.354301 6.455669 0.000001 -0.000001 0.000000 -82.855570 5.776011 18.169912 79.513825 7.198486 -3.375887 6.381632 -4.789733 -2.479910 0.000001 0.000000 0.000000 0.000001 0.000000 0.000000 0.000002 -0.000000 -0.000000 -27.287859 3.745975 -1.359192 37.108575 1.005390 -0.415764 -6.174639 -10.466215 9.531432 -0.000000 0.000002 -0.000001 -0.000000 0.000002 -0.000001 0.000001 -0.000001 0.000001 17.591548 5.654890 -9.061214 3.077287 1.862033 0.679605 -9.831929 0.832859 4.395545 -4.861702 6.567924 -5.254666 -25.614985 3.813658 -0.693865 -0.000000 0.000000 0.000000 -0.000000 0.000000 0.000000 -0.000000 0.000000 0.000000 1.645554 -1.000238 9.830197 -71.214496 12.734334 -32.673590 -207.556239 -81.794848 -208.882034 -60.947663 5.792283 18.734734 17.551578 -5.699195 -12.932263 10.850572 26.127714 8.644761 0.000000 -0.000002 0.000003 13.980899 1.201575 -55.004367 0.370825 1.161713 -65.441900 -0.000004 0.000000 -0.000003 7.504747 1.174532 -63.778517 1.807869 1.475660 -64.568012 -0.000000 -0.000001 0.000002 8.574302 2.179135 -75.148986 -0.207619 1.009282 -57.855063 -0.000001 0.000000 -0.000002 10.030085 13.637087 -84.750230 0.877139 0.062354 -64.595476 0.000003 0.000001 -0.000004 -0.000001 -0.000001 0.000004 3.982604 19.709894 3.730238 -24.454307 4.678996 37.090516 140.273412 71.780425 -145.773381 5.361421 -0.110363 4.820070 13.153470 0.459009 -6.994882 -0.426164 -24.662054 5.664082 -0.000000 0.000002 -0.000001 1.770449 -2.830801 24.446779 -1.805899 -1.664675 33.469368 -0.000003 0.000001 -0.000003 -0.886110 -4.086508 27.574563 0.038895 -3.788287 45.183901 -0.000001 -0.000008 0.000002 -1.777060 -7.831449 29.587717 2.625435 -3.317452 51.745056 -0.000001 -0.000001 0.000000 -4.811193 -8.567990 42.150682 7.604504 -2.580034 59.179252 0.000000 0.000000 -0.000001 -0.000002 -0.000001 0.000001 0.000005 0.000000 0.000000 0.000005 0.000000 0.000000 0.000005 0.000000 0.000000 0.000005 0.000000 0.000000 0.000005 0.000000 0.000000 0.000001 0.000000 0.000000 0.000005 0.000000 0.000000 0.000005 0.000000 0.000000 0.000001 0.000000 0.000000 0.000001 0.000000 -0.000000 0.000001 0.000000 -0.000000 0.000001 -0.000001 0.000000 
